<svg width="75" height="41" viewBox="0 0 75 41" fill="none" xmlns="http://www.w3.org/2000/svg">
<path d="M39.7595 21.1496L51.1175 39.4116C51.5525 40.1116 52.2995 40.8486 53.1235 40.8626L71.8975 40.8616C73.8175 40.8936 75.0105 38.7866 73.9965 37.1556L51.6005 1.14463C50.6515 -0.381375 48.4305 -0.381375 47.4815 1.14363L39.7595 13.5576C38.3145 15.8816 38.3145 18.8256 39.7595 21.1496Z" fill="#96D4FF"/>
<path d="M34.6068 21.1496L23.2488 39.4116C22.8138 40.1116 22.0668 40.8486 21.2428 40.8626L2.46882 40.8616C0.548816 40.8936 -0.644184 38.7866 0.369816 37.1556L22.7658 1.14463C23.7148 -0.381375 25.9358 -0.381375 26.8848 1.14363L34.6068 13.5576C36.0518 15.8816 36.0518 18.8256 34.6068 21.1496Z" fill="#96D4FF"/>
</svg>
