<?xml version="1.0" encoding="UTF-8"?>
<svg id="Camada_1" data-name="Camada 1" xmlns="http://www.w3.org/2000/svg" viewBox="0 0 857 421">
  <defs>
    <style>
      .cls-1 {
        fill: #96d4ff;
      }

      .cls-2 {
        fill: #042938;
      }

      .cls-3 {
        fill: #fff;
      }
    </style>
  </defs>
  <rect class="cls-2" x="-4.6" width="866.88" height="420.03"/>
  <g>
    <g>
      <path class="cls-3" d="M316.72,143.61h20.37l32.04,76.34h.57l31.76-76.34h20.37v100.83h-13.67v-82.89h-.29l-34.04,82.89h-9.11l-34.04-82.89h-.28v82.89h-13.67v-100.83Z"/>
      <path class="cls-3" d="M453.15,215.39c0,2.94.64,5.63,1.92,8.05,1.28,2.42,2.97,4.49,5.06,6.2,2.09,1.71,4.51,3.04,7.26,3.99,2.75.95,5.6,1.42,8.55,1.42,3.99,0,7.45-.93,10.4-2.78,2.94-1.85,5.65-4.29,8.12-7.33l9.68,7.41c-7.12,9.21-17.09,13.81-29.91,13.81-5.32,0-10.14-.9-14.46-2.71-4.32-1.8-7.97-4.29-10.97-7.48-2.99-3.18-5.29-6.93-6.91-11.25-1.62-4.32-2.42-8.99-2.42-14.03s.88-9.71,2.64-14.03c1.76-4.32,4.18-8.07,7.26-11.25,3.08-3.18,6.76-5.67,11.04-7.48,4.27-1.8,8.92-2.71,13.96-2.71,5.98,0,11.04,1.05,15.17,3.13,4.13,2.09,7.52,4.82,10.18,8.19,2.66,3.37,4.58,7.17,5.77,11.39,1.19,4.23,1.78,8.52,1.78,12.89v4.56h-54.12ZM493.6,205.14c-.1-2.85-.55-5.46-1.35-7.83-.81-2.37-2.02-4.44-3.63-6.2-1.62-1.76-3.63-3.13-6.05-4.13-2.42-1-5.25-1.5-8.47-1.5s-6.01.59-8.62,1.78c-2.61,1.19-4.82,2.73-6.62,4.63-1.8,1.9-3.2,4.01-4.2,6.34-1,2.33-1.5,4.63-1.5,6.91h40.45Z"/>
      <path class="cls-3" d="M590.3,244.45l-11.12,5.05c-.8.36-1.7-.22-1.7-1.09v-10.77c0-1.06-1.26-1.6-2.03-.88-2.17,2.06-5.68,5.13-8.44,6.41-4.32,1.99-8.76,2.99-13.32,2.99-5.22,0-9.95-.9-14.17-2.71-4.23-1.8-7.83-4.32-10.82-7.55-2.99-3.23-5.29-6.98-6.91-11.25-1.62-4.27-2.42-8.92-2.42-13.96s.81-9.71,2.42-14.03c1.61-4.32,3.92-8.07,6.91-11.25,2.99-3.18,6.6-5.67,10.82-7.48,4.22-1.8,8.95-2.71,14.17-2.71,4.84,0,9.4,1.02,13.67,3.06,2.68,1.28,5.99,4.24,8.07,6.26.76.74,2.04.2,2.04-.86v-46.92s11.11-5.08,11.11-5.08c.8-.36,1.7.22,1.7,1.09v111.66ZM555.27,234.19c3.42,0,6.5-.59,9.26-1.78,2.75-1.19,5.08-2.8,6.98-4.84,1.9-2.04,3.37-4.51,4.41-7.41,1.04-2.89,1.57-6.05,1.57-9.47s-.52-6.57-1.57-9.47c-1.04-2.89-2.52-5.36-4.41-7.41-1.9-2.04-4.23-3.65-6.98-4.84-2.76-1.19-5.84-1.78-9.26-1.78s-6.5.59-9.26,1.78c-2.76,1.19-5.08,2.8-6.98,4.84-1.9,2.04-3.37,4.51-4.41,7.41-1.04,2.9-1.57,6.05-1.57,9.47s.52,6.58,1.57,9.47c1.04,2.9,2.51,5.37,4.41,7.41,1.9,2.04,4.22,3.66,6.98,4.84,2.75,1.19,5.84,1.78,9.26,1.78Z"/>
      <path class="cls-3" d="M624.76,143.61v61.81c0,3.13.43,6.39,1.28,9.76.85,3.37,2.28,6.48,4.27,9.33,2,2.85,4.61,5.18,7.83,6.98,3.23,1.8,7.21,2.71,11.96,2.71s8.73-.9,11.96-2.71c3.23-1.8,5.84-4.13,7.83-6.98,1.99-2.85,3.42-5.96,4.27-9.33.86-3.37,1.28-6.62,1.28-9.76v-61.81h13.67v63.95c0,5.89-1,11.23-2.99,16.02-1.99,4.8-4.75,8.95-8.26,12.46-3.51,3.51-7.64,6.22-12.39,8.12-4.75,1.9-9.88,2.85-15.38,2.85s-10.63-.95-15.38-2.85c-4.75-1.9-8.88-4.6-12.39-8.12-3.51-3.51-6.27-7.67-8.26-12.46-1.99-4.79-2.99-10.13-2.99-16.02v-63.95h13.67Z"/>
      <path class="cls-3" d="M709.93,176.94l11.17-4.42c.79-.31,1.65.27,1.65,1.12v10.12c0,1.06,1.26,1.6,2.03.88,2.17-2.06,5.68-5.13,8.44-6.41,4.32-1.99,8.76-2.99,13.32-2.99,5.22,0,9.94.9,14.17,2.71,4.22,1.81,7.83,4.32,10.82,7.55,2.99,3.23,5.29,7,6.91,11.32,1.61,4.32,2.42,8.95,2.42,13.89s-.81,9.71-2.42,14.03c-1.62,4.32-3.92,8.07-6.91,11.25-2.99,3.18-6.6,5.67-10.82,7.48-4.23,1.8-8.95,2.71-14.17,2.71-4.84,0-9.4-1.02-13.67-3.06-2.68-1.28-5.99-4.24-8.07-6.26-.76-.74-2.04-.2-2.04.86v46.92l-11.15,4.71c-.79.34-1.67-.25-1.67-1.11v-111.27ZM744.96,187.19c-3.42,0-6.5.59-9.26,1.78-2.75,1.19-5.08,2.8-6.98,4.84-1.9,2.04-3.37,4.51-4.41,7.41-1.05,2.9-1.57,6.05-1.57,9.47s.52,6.58,1.57,9.47c1.04,2.9,2.51,5.37,4.41,7.41,1.9,2.04,4.22,3.66,6.98,4.84,2.75,1.19,5.84,1.78,9.26,1.78s6.5-.59,9.26-1.78c2.75-1.19,5.08-2.8,6.98-4.84,1.9-2.04,3.37-4.51,4.41-7.41,1.04-2.89,1.57-6.05,1.57-9.47s-.52-6.57-1.57-9.47c-1.05-2.89-2.52-5.36-4.41-7.41-1.9-2.04-4.23-3.65-6.98-4.84-2.76-1.19-5.84-1.78-9.26-1.78Z"/>
    </g>
    <g>
      <path class="cls-1" d="M164.83,194.29l-29.1,46.8c-1.12,1.79-3.03,3.68-5.14,3.72h-48.11c-4.92.08-7.98-5.32-5.38-9.5l57.39-92.28c2.43-3.91,8.12-3.91,10.55,0l19.79,31.81c3.7,5.96,3.7,13.5,0,19.45Z"/>
      <path class="cls-1" d="M178.04,194.29l29.1,46.8c1.12,1.79,3.03,3.68,5.14,3.72h48.11c4.92.08,7.98-5.32,5.38-9.5l-57.39-92.28c-2.43-3.91-8.12-3.91-10.55,0l-19.79,31.81c-3.7,5.96-3.7,13.5,0,19.45Z"/>
    </g>
  </g>
</svg>